REM MD5 953b54d3d0a3fdc2f6b601c237c8c2c5
FILE "Euro Demo (Future) 108 (Europe).bin" BINARY
  TRACK 01 MODE2/2352
    INDEX 01 00:00:00
  TRACK 02 AUDIO
    INDEX 00 47:14:33
    INDEX 01 47:16:33
  TRACK 03 AUDIO
    INDEX 00 48:35:33
    INDEX 01 48:37:33
  TRACK 04 AUDIO
    INDEX 00 50:31:29
    INDEX 01 50:33:29
  TRACK 05 AUDIO
    INDEX 00 52:15:54
    INDEX 01 52:17:54
REM LEADOUT 55:19:11
